<svg xmlns="http://www.w3.org/2000/svg" width="59.5" height="55.844" viewBox="0 0 59.5 55.844">
  <g id="booom-logo-wit-06" transform="translate(0.5 0.5)">
    <path id="Path_18" data-name="Path 18" d="M43.493,54.843H1.141a1.181,1.181,0,0,1-.808-.31A1.024,1.024,0,0,1,0,53.78V21.313a1.024,1.024,0,0,1,.333-.753,1.181,1.181,0,0,1,.808-.31h41.21V14.274H1.141A1.1,1.1,0,0,1,0,13.211V1.063A1.024,1.024,0,0,1,.333.31,1.181,1.181,0,0,1,1.141,0H43.493A14.815,14.815,0,0,1,54.934,5.044,12.963,12.963,0,0,1,58.5,13.968v4.481a13.279,13.279,0,0,1-3.474,8.823A14.083,14.083,0,0,1,58.5,36.394v4.54A13.074,13.074,0,0,1,53.085,51.6,15.334,15.334,0,0,1,43.493,54.843ZM2.278,52.721H43.514a12.845,12.845,0,0,0,8.118-2.759,10.913,10.913,0,0,0,4.611-9.029v-4.54a12.378,12.378,0,0,0-3.553-8.458,1.006,1.006,0,0,1,.033-1.408,11.312,11.312,0,0,0,3.507-8.094V13.968A10.852,10.852,0,0,0,53.2,6.414a12.447,12.447,0,0,0-9.709-4.291H2.278V12.148H43.514a1.1,1.1,0,0,1,1.141,1.063v8.1a1.1,1.1,0,0,1-1.141,1.059H2.278ZM43.514,42.7H14.932a1.1,1.1,0,0,1-1.141-1.063v-8.1a1.1,1.1,0,0,1,1.141-1.063H43.493a1.1,1.1,0,0,1,1.141,1.063v8.1a1.106,1.106,0,0,1-1.141,1.048ZM16.094,40.569H42.372V34.594h-26.3Z" transform="translate(0)" fill="#fff" stroke="#fff" stroke-miterlimit="10" stroke-width="1"/>
  </g>
</svg>
